# Blender v2.93.5 OBJ File: ''
# www.blender.org
mtllib dado_dm.mtl
o Solid
v 0.000000 0.000000 1.000000
v 0.000000 0.000000 -1.000000
v 1.000000 0.000000 0.000000
v -1.000000 0.000000 0.000000
v 0.000000 1.000000 0.000000
v 0.000000 -1.000000 0.000000
vt 0.147557 0.640697
vt 0.008496 0.348877
vt 0.273506 0.346298
vt 0.429463 0.027306
vt 0.559309 0.313551
vt 0.299616 0.313551
vt 0.430858 0.644358
vt 0.303661 0.359208
vt 0.552809 0.358292
vt 0.284004 0.360063
vt 0.419141 0.661424
vt 0.149445 0.660281
vt 0.856522 0.350845
vt 0.988278 0.656979
vt 0.726019 0.659916
vt 0.715490 0.654550
vt 0.582195 0.338376
vt 0.848785 0.338376
vt 0.570139 0.347775
vt 0.700029 0.658971
vt 0.438738 0.657765
vt 0.570741 0.979357
vt 0.447128 0.674528
vt 0.694354 0.674528
vn 0.5774 0.5774 0.5774
vn 0.5774 0.5774 -0.5774
vn -0.5774 0.5774 -0.5774
vn -0.5774 0.5774 0.5774
vn 0.5774 -0.5774 0.5774
vn 0.5774 -0.5774 -0.5774
vn -0.5774 -0.5774 -0.5774
vn -0.5774 -0.5774 0.5774
usemtl Material.001
s off
f 5/1/1 1/2/1 3/3/1
f 5/4/2 3/5/2 2/6/2
f 5/7/3 2/8/3 4/9/3
f 5/10/4 4/11/4 1/12/4
f 6/13/5 3/14/5 1/15/5
f 6/16/6 2/17/6 3/18/6
f 6/19/7 4/20/7 2/21/7
f 6/22/8 1/23/8 4/24/8
